<?xml version="1.0" standalone="no"?>
<!DOCTYPE svg PUBLIC "-//W3C//DTD SVG 20010904//EN"
 "http://www.w3.org/TR/2001/REC-SVG-20010904/DTD/svg10.dtd">
<svg version="1.0" xmlns="http://www.w3.org/2000/svg"
 width="400.000000pt" height="400.000000pt" viewBox="0 0 400.000000 400.000000"
 preserveAspectRatio="xMidYMid meet">
<metadata>
Created by potrace 1.16, written by Peter Selinger 2001-2019
</metadata>
<g transform="translate(0.000000,400.000000) scale(0.100000,-0.100000)"
fill="#000000" stroke="none">
<path d="M977 3205 l6 -115 -250 0 c-248 0 -249 0 -301 -26 -58 -29 -96 -69
-126 -134 -21 -45 -21 -52 -21 -1035 l0 -990 24 -52 c26 -58 83 -116 140 -141
33 -16 137 -17 1171 -17 1026 0 1138 2 1171 16 56 26 110 79 135 134 l24 50
-1 495 0 495 -114 -120 -115 -120 0 -347 0 -348 -1115 0 -1115 0 0 795 0 795
988 0 987 0 204 232 c223 252 219 244 145 282 -35 19 -60 21 -251 24 l-213 3
0 -120 0 -121 -48 0 -49 0 -6 158 c-4 86 -7 194 -7 240 l0 82 -125 0 -125 0 0
-120 0 -120 -324 0 -323 0 -6 -67 c-4 -38 -7 -92 -7 -120 l0 -53 -50 0 -50 0
0 73 c0 41 -3 149 -7 240 l-6 167 -123 0 -122 0 5 -115z"/>
<path d="M3236 3094 l-110 -114 180 -183 c98 -100 184 -183 189 -185 10 -2
215 210 215 223 0 8 -353 375 -360 374 -3 -1 -54 -53 -114 -115z"/>
<path d="M2638 2487 l-397 -392 -37 -218 c-20 -120 -34 -221 -31 -224 4 -3
106 20 229 52 l223 57 75 71 c41 39 213 206 383 370 l307 299 -102 109 c-57
60 -137 145 -178 189 l-75 80 -397 -393z m-169 -539 l83 -87 -39 -10 c-85 -22
-185 -43 -189 -38 -6 6 49 228 56 225 3 -2 43 -42 89 -90z"/>
<path d="M670 2195 l0 -155 185 0 185 0 0 155 0 155 -185 0 -185 0 0 -155z"/>
<path d="M1160 2195 l0 -155 185 0 185 0 0 155 0 155 -185 0 -185 0 0 -155z"/>
<path d="M1690 2195 l0 -155 188 2 187 3 0 150 0 150 -187 3 -188 2 0 -155z"/>
<path d="M670 1720 l0 -150 190 0 190 0 0 150 0 150 -190 0 -190 0 0 -150z"/>
<path d="M1160 1720 l0 -150 185 0 185 0 0 150 0 150 -185 0 -185 0 0 -150z"/>
<path d="M1690 1720 l0 -150 185 0 185 0 0 150 0 150 -185 0 -185 0 0 -150z"/>
<path d="M670 1300 l0 -150 190 0 190 0 0 150 0 150 -190 0 -190 0 0 -150z"/>
<path d="M1160 1295 l0 -155 185 0 185 0 0 155 0 155 -185 0 -185 0 0 -155z"/>
<path d="M1690 1300 l0 -150 185 0 185 0 0 150 0 150 -185 0 -185 0 0 -150z"/>
<path d="M2180 1300 l0 -150 190 0 190 0 0 150 0 150 -190 0 -190 0 0 -150z"/>
</g>
</svg>
