<?xml version="1.0" standalone="no"?>
<!DOCTYPE svg PUBLIC "-//W3C//DTD SVG 20010904//EN"
 "http://www.w3.org/TR/2001/REC-SVG-20010904/DTD/svg10.dtd">
<svg version="1.0" xmlns="http://www.w3.org/2000/svg"
 width="200.000000pt" height="200.000000pt" viewBox="0 0 200.000000 200.000000"
 preserveAspectRatio="xMidYMid meet">
<metadata>
Created by potrace 1.16, written by Peter Selinger 2001-2019
</metadata>
<g transform="translate(0.000000,200.000000) scale(0.100000,-0.100000)"
fill="#000000" stroke="none">
<path d="M907 1890 c-99 -25 -200 -108 -251 -205 l-31 -60 -3 -698 c-3 -784
-6 -744 71 -795 l41 -27 266 0 266 0 41 27 c77 51 74 11 71 795 l-3 698 -31
60 c-39 74 -116 148 -190 182 -62 28 -182 39 -247 23z m240 -81 c68 -33 118
-84 155 -158 l23 -46 2 -680 c3 -733 5 -708 -50 -749 -27 -20 -43 -21 -255
-24 -252 -4 -286 2 -327 49 l-26 31 3 687 3 686 23 46 c86 175 275 242 449
158z"/>
<path d="M945 1761 c-83 -21 -155 -87 -180 -162 -24 -71 -18 -378 8 -430 78
-156 285 -192 404 -69 63 65 68 85 68 295 0 210 -5 230 -67 294 -60 61 -158
91 -233 72z m135 -91 c91 -46 122 -166 66 -251 -94 -142 -319 -76 -319 94 0
29 7 66 16 82 43 85 151 119 237 75z"/>
<path d="M943 1641 c-71 -33 -100 -110 -70 -184 30 -71 133 -101 203 -58 62
38 81 134 39 197 -16 25 -86 64 -115 64 -8 0 -34 -9 -57 -19z"/>
<path d="M924 867 c-3 -8 -4 -43 -2 -78 l3 -64 75 0 75 0 0 75 0 75 -73 3
c-55 2 -74 -1 -78 -11z"/>
</g>
</svg>
