<?xml version="1.0" standalone="no"?>
<!DOCTYPE svg PUBLIC "-//W3C//DTD SVG 20010904//EN"
 "http://www.w3.org/TR/2001/REC-SVG-20010904/DTD/svg10.dtd">
<svg version="1.0" xmlns="http://www.w3.org/2000/svg"
 width="512.000000pt" height="512.000000pt" viewBox="0 0 512.000000 512.000000"
 preserveAspectRatio="xMidYMid meet">
<metadata>
Created by potrace 1.16, written by Peter Selinger 2001-2019
</metadata>
<g transform="translate(0.000000,512.000000) scale(0.100000,-0.100000)"
fill="#000000" stroke="none">
<path d="M203 4958 c-174 -172 -196 -198 -191 -231 3 -19 32 5 192 163 103
102 192 193 197 203 8 14 5 17 -17 17 -21 0 -60 -33 -181 -152z"/>
<path d="M303 4858 c-140 -139 -264 -265 -275 -281 -10 -15 -18 -37 -16 -50 3
-18 49 23 292 263 158 157 292 293 297 303 8 14 5 17 -17 17 -22 0 -75 -47
-281 -252z"/>
<path d="M402 4758 c-194 -194 -362 -365 -373 -381 -11 -15 -19 -37 -17 -50 4
-18 67 40 392 363 213 212 392 393 397 403 8 14 5 17 -18 17 -22 0 -89 -62
-381 -352z"/>
<path d="M502 4658 c-249 -249 -462 -465 -473 -481 -11 -15 -19 -37 -17 -50 4
-18 84 57 492 463 268 267 492 493 497 503 8 14 5 17 -18 17 -22 0 -104 -76
-481 -452z"/>
<path d="M602 4558 c-304 -304 -562 -565 -573 -581 -11 -15 -19 -37 -17 -50 4
-18 101 75 592 563 323 322 592 593 597 603 8 14 5 17 -18 17 -23 0 -118 -91
-581 -552z"/>
<path d="M702 4458 c-359 -359 -662 -665 -673 -681 -11 -15 -19 -37 -17 -50 4
-18 118 92 692 663 378 377 692 693 697 703 8 14 5 17 -18 17 -23 0 -133 -106
-681 -652z"/>
<path d="M802 4358 c-414 -414 -762 -765 -773 -781 -11 -15 -19 -37 -17 -50 4
-18 136 109 792 763 433 432 792 793 797 803 8 14 5 17 -18 17 -23 0 -148
-120 -781 -752z"/>
<path d="M902 4258 c-469 -469 -862 -865 -873 -881 -11 -15 -19 -37 -17 -50 4
-18 153 126 892 863 488 487 892 893 897 903 8 14 5 17 -18 17 -23 0 -162
-135 -881 -852z"/>
<path d="M1002 4158 c-524 -524 -962 -965 -973 -981 -11 -15 -19 -37 -17 -50
4 -18 170 144 992 963 543 542 992 993 997 1003 8 14 5 17 -18 17 -23 0 -177
-149 -981 -952z"/>
<path d="M1102 4058 c-579 -579 -1062 -1065 -1073 -1081 -11 -15 -19 -37 -17
-50 4 -18 54 27 316 288 l312 310 0 -65 0 -64 -315 -316 c-257 -258 -315 -321
-315 -343 0 -15 3 -27 7 -27 4 0 146 138 315 307 l308 308 0 -65 0 -64 -315
-316 c-257 -258 -315 -321 -315 -343 0 -15 3 -27 7 -27 4 0 146 138 315 307
l308 308 0 -65 0 -64 -315 -316 c-257 -258 -315 -321 -315 -343 0 -15 3 -27 7
-27 4 0 146 138 315 307 l308 308 0 -65 0 -64 -315 -316 c-257 -258 -315 -321
-315 -343 0 -15 3 -27 7 -27 4 0 146 138 315 307 l308 308 0 -65 0 -64 -315
-316 c-257 -258 -315 -321 -315 -343 0 -15 3 -27 7 -27 4 0 146 138 315 307
l308 308 0 -65 0 -64 -315 -316 c-257 -258 -315 -321 -315 -343 0 -15 3 -27 7
-27 4 0 146 138 315 307 l308 308 0 -65 0 -64 -315 -316 c-257 -258 -315 -321
-315 -343 0 -15 3 -27 7 -27 4 0 146 138 315 307 l308 308 0 -65 0 -64 -315
-316 c-257 -258 -315 -321 -315 -343 0 -15 3 -27 7 -27 4 0 146 138 315 307
l308 308 0 -65 0 -64 -315 -316 c-257 -258 -315 -321 -315 -343 0 -15 3 -27 7
-27 4 0 146 138 315 307 l308 308 0 -65 0 -64 -315 -316 c-257 -258 -315 -321
-315 -343 0 -15 3 -27 7 -27 4 0 146 138 315 307 l308 308 0 -65 0 -64 -315
-316 c-257 -258 -315 -321 -315 -343 0 -15 3 -27 7 -27 4 0 146 138 315 307
l308 308 0 -65 0 -64 -315 -316 c-257 -258 -315 -321 -315 -343 0 -15 3 -27 7
-27 4 0 146 138 315 307 l308 308 0 -65 0 -64 -315 -316 c-257 -258 -315 -321
-315 -343 0 -15 3 -27 7 -27 4 0 146 138 315 307 l308 308 0 -65 0 -64 -315
-316 c-257 -258 -315 -321 -315 -343 0 -15 3 -27 7 -27 4 0 145 138 314 306
304 303 307 306 314 276 3 -17 13 -36 21 -43 13 -11 -32 -60 -295 -324 -171
-171 -311 -314 -311 -318 0 -4 12 -7 27 -7 22 0 85 58 343 315 l316 315 64 0
65 0 -308 -308 c-169 -169 -307 -311 -307 -315 0 -4 12 -7 27 -7 22 0 85 58
343 315 l316 315 64 0 65 0 -308 -308 c-169 -169 -307 -311 -307 -315 0 -4 12
-7 27 -7 22 0 85 58 343 315 l316 315 64 0 65 0 -308 -308 c-169 -169 -307
-311 -307 -315 0 -4 12 -7 27 -7 22 0 85 58 343 315 l316 315 64 0 65 0 -308
-308 c-169 -169 -307 -311 -307 -315 0 -4 12 -7 27 -7 22 0 85 58 343 315
l316 315 64 0 65 0 -308 -308 c-169 -169 -307 -311 -307 -315 0 -4 12 -7 27
-7 22 0 85 58 343 315 l316 315 64 0 65 0 -308 -308 c-169 -169 -307 -311
-307 -315 0 -4 12 -7 27 -7 22 0 85 58 343 315 l316 315 64 0 65 0 -308 -308
c-169 -169 -307 -311 -307 -315 0 -4 12 -7 27 -7 22 0 85 58 343 315 l316 315
64 0 65 0 -308 -308 c-169 -169 -307 -311 -307 -315 0 -4 12 -7 27 -7 22 0 85
58 343 315 l316 315 64 0 65 0 -308 -308 c-169 -169 -307 -311 -307 -315 0 -4
12 -7 27 -7 22 0 85 58 343 315 l316 315 64 0 65 0 -308 -308 c-169 -169 -307
-311 -307 -315 0 -4 12 -7 27 -7 22 0 85 58 343 315 l316 315 64 0 65 0 -308
-308 c-169 -169 -307 -311 -307 -315 0 -4 12 -7 27 -7 22 0 85 58 343 315
l316 315 64 0 65 0 -308 -308 c-169 -169 -307 -311 -307 -315 0 -4 12 -7 27
-7 22 0 85 58 343 315 l316 315 64 0 65 0 -308 -308 c-169 -169 -307 -311
-307 -315 0 -4 12 -7 27 -7 22 0 85 58 343 315 l316 315 64 0 65 0 -310 -312
c-261 -262 -306 -312 -288 -316 13 -2 35 6 50 17 35 25 2157 2148 2179 2179 8
12 14 32 12 45 -4 18 -134 -107 -766 -738 l-762 -760 0 65 0 65 765 765 c639
639 765 770 765 793 0 15 -3 27 -7 27 -4 0 -349 -341 -765 -757 l-758 -758 0
65 0 65 765 765 c639 639 765 770 765 793 0 15 -3 27 -7 27 -4 0 -349 -341
-765 -757 l-758 -758 0 65 0 65 765 765 c639 639 765 770 765 793 0 15 -3 27
-7 27 -4 0 -349 -341 -765 -757 l-758 -758 0 65 0 65 765 765 c639 639 765
770 765 793 0 15 -3 27 -7 27 -4 0 -349 -341 -765 -757 l-758 -758 0 65 0 65
765 765 c639 639 765 770 765 793 0 15 -3 27 -7 27 -4 0 -164 -156 -356 -347
-328 -329 -346 -345 -323 -293 13 30 28 73 31 95 7 36 40 72 331 366 266 267
324 330 324 352 0 23 -3 26 -17 18 -10 -5 -153 -145 -318 -310 -165 -166 -303
-301 -306 -301 -4 0 -9 24 -12 53 l-5 52 329 331 c268 269 329 335 329 357 0
15 -3 27 -7 27 -4 0 -156 -149 -339 -331 l-331 -331 -22 37 c-11 20 -21 39
-21 43 0 3 162 169 360 367 297 298 360 366 360 388 0 23 -3 26 -17 18 -10 -5
-180 -172 -378 -370 l-359 -361 -33 32 -33 32 410 411 c337 338 410 416 410
438 0 15 -3 27 -7 27 -4 0 -197 -190 -430 -422 l-422 -422 -40 19 c-23 10 -41
21 -41 24 0 3 211 217 470 476 388 389 470 476 470 498 0 15 -3 27 -7 27 -4 0
-230 -222 -503 -493 l-495 -494 -54 10 -54 9 557 557 c461 462 556 561 556
584 0 15 -3 27 -7 27 -4 0 -164 -156 -356 -347 -328 -329 -346 -345 -323 -293
13 30 28 73 31 95 7 36 40 72 331 366 266 267 324 330 324 352 0 23 -3 26 -17
18 -10 -5 -153 -145 -318 -310 -165 -166 -303 -301 -306 -301 -4 0 -9 24 -12
53 l-5 52 329 331 c268 269 329 335 329 357 0 15 -3 27 -7 27 -4 0 -156 -149
-339 -331 l-331 -331 -22 37 c-11 20 -21 39 -21 43 0 3 162 169 360 367 295
296 360 366 360 388 0 15 -3 27 -7 27 -4 0 -174 -167 -378 -370 l-371 -370
-32 33 -32 33 346 344 c190 190 350 353 355 363 8 14 5 17 -18 17 -22 0 -88
-61 -374 -347 l-348 -346 -41 18 c-22 10 -40 21 -40 24 0 3 138 143 306 311
168 168 310 313 315 323 8 14 5 17 -17 17 -23 0 -85 -57 -348 -318 l-321 -319
-54 10 -54 9 302 302 c165 166 301 305 301 309 0 4 -12 7 -27 7 -22 0 -85 -58
-342 -314 -256 -255 -323 -315 -351 -321 -44 -10 -114 -40 -154 -67 -17 -11
128 138 322 333 193 195 352 358 352 362 0 4 -12 7 -27 7 -23 0 -131 -103
-640 -612 l-613 -613 -32 33 -33 32 573 573 c314 315 572 576 572 580 0 4 -12
7 -27 7 -23 0 -123 -96 -590 -562 l-563 -563 -32 33 -33 32 523 523 c287 287
522 526 522 530 0 4 -12 7 -27 7 -23 0 -115 -88 -538 -510 -281 -280 -515
-510 -520 -510 -6 0 -23 12 -39 26 l-29 26 476 477 c263 262 477 480 477 484
0 4 -12 7 -27 7 -22 0 -109 -82 -498 -469 l-470 -469 -38 26 -38 26 435 436
c240 239 436 439 436 443 0 4 -12 7 -27 7 -22 0 -103 -76 -458 -430 l-431
-431 -42 24 -41 23 390 390 c215 214 395 397 400 407 8 14 5 17 -18 17 -22 0
-96 -69 -427 -398 l-401 -399 -49 14 -49 15 377 377 c207 207 376 380 376 384
0 4 -12 7 -27 7 -22 0 -95 -68 -407 -379 l-381 -379 -59 -7 c-33 -4 -66 -9
-75 -12 -9 -3 156 167 367 378 210 212 382 388 382 392 0 4 -12 7 -27 7 -23 0
-154 -126 -793 -765 l-765 -765 -65 0 -65 0 758 758 c416 416 757 761 757 765
0 4 -12 7 -27 7 -23 0 -154 -126 -793 -765 l-765 -765 -65 0 -65 0 758 758
c416 416 757 761 757 765 0 4 -12 7 -27 7 -23 0 -154 -126 -793 -765 l-765
-765 -65 0 -65 0 758 758 c416 416 757 761 757 765 0 4 -12 7 -27 7 -23 0
-154 -126 -793 -765 l-765 -765 -65 0 -65 0 758 758 c416 416 757 761 757 765
0 4 -12 7 -27 7 -23 0 -198 -170 -1081 -1052z m2516 235 c-24 -28 -66 -116
-78 -165 -10 -39 -32 -66 -161 -194 l-149 -149 -32 33 -33 32 230 230 c126
127 232 230 234 230 2 0 -3 -8 -11 -17z m-1363 -23 l29 -31 -329 -329 -330
-330 -65 0 -65 0 360 360 c198 198 362 360 366 360 3 0 18 -14 34 -30z m1809
-38 c3 -5 -59 -73 -138 -151 -155 -155 -155 -155 -156 -61 0 30 11 46 92 127
l93 93 52 0 c28 0 54 -4 57 -8z m-32 -245 c-167 -167 -174 -171 -207 -120
l-17 26 158 158 158 159 33 -32 34 -32 -159 -159z m-1677 183 l29 -31 -279
-279 -280 -280 -65 0 -65 0 310 310 c170 171 312 310 316 310 3 0 18 -14 34
-30z m100 -100 l29 -31 -229 -229 -230 -230 -65 0 -65 0 260 260 c143 143 262
260 266 260 3 0 18 -14 34 -30z m1774 -45 c1 -38 -5 -46 -102 -143 -108 -107
-122 -115 -183 -92 l-28 11 149 149 c160 161 163 162 164 75z m-795 -235
l-104 -105 -32 33 -33 32 130 130 130 130 7 -57 7 -58 -105 -105z m-879 180
l29 -31 -179 -179 -180 -180 -65 0 -65 0 210 210 c115 116 212 210 216 210 3
0 18 -14 34 -30z m100 -100 l29 -30 -129 -130 -130 -130 -65 0 -65 0 160 160
c88 88 162 160 166 160 3 0 18 -14 34 -30z m100 -100 l29 -30 -79 -80 -80 -80
-65 0 -65 0 110 110 c60 61 112 110 115 110 4 0 19 -14 35 -30z m961 -299
l-105 -105 -26 24 -26 24 97 97 97 97 34 -16 34 -16 -105 -105z m371 -29
c-142 -142 -163 -160 -207 -171 -27 -7 -66 -21 -86 -32 -21 -10 -40 -16 -43
-13 -3 2 64 74 149 159 144 144 158 155 205 165 27 6 68 19 90 30 22 10 42 19
45 19 3 1 -66 -70 -153 -157z m-144 100 l37 -7 -135 -135 -135 -135 -32 33
-33 32 110 110 c113 113 116 115 188 102z m-888 -72 l29 -31 -589 -589 -590
-590 -65 0 -65 0 620 620 c341 341 622 620 626 620 3 0 18 -14 34 -30z m-1510
-370 l-160 -160 -3 62 -3 62 98 98 98 98 65 0 65 0 -160 -160z m100 -100
l-260 -260 -3 62 -3 62 198 198 198 198 65 0 65 0 -260 -260z m100 -100 l-360
-360 -3 62 -3 62 298 298 298 298 65 0 65 0 -360 -360z m100 -100 l-460 -460
-3 62 -3 62 398 398 398 398 65 0 65 0 -460 -460z m160 -40 l-500 -500 -65 0
-65 0 500 500 500 500 65 0 65 0 -500 -500z m200 0 l-500 -500 -65 0 -65 0
500 500 500 500 65 0 65 0 -500 -500z m-1065 388 c0 -51 -2 -54 -62 -115 -61
-61 -64 -63 -115 -63 -35 0 -53 4 -53 12 0 17 201 218 217 218 9 0 13 -17 13
-52z m2256 21 c4 -7 -177 -195 -442 -460 l-449 -449 -65 0 -65 0 150 150 c104
105 179 170 246 215 101 68 275 223 479 429 69 69 128 126 132 126 4 0 10 -5
14 -11z m79 -79 l29 -30 -49 -50 c-37 -38 -52 -47 -62 -39 -10 9 -52 -27 -186
-158 -96 -92 -208 -195 -250 -228 -75 -59 -77 -61 -77 -105 0 -43 -4 -48 -87
-132 l-88 -88 -65 0 -65 0 430 430 c236 237 432 430 436 430 3 0 18 -14 34
-30z m589 -58 c3 -5 -59 -73 -138 -151 -155 -155 -155 -155 -156 -61 0 30 11
46 92 127 l93 93 52 0 c28 0 54 -4 57 -8z m-509 -22 c3 -5 -2 -35 -11 -67 -13
-48 -28 -70 -82 -125 -36 -37 -69 -65 -74 -62 -4 3 -8 28 -8 57 0 51 1 52 77
129 79 80 87 85 98 68z m477 -223 c-167 -167 -174 -171 -207 -120 l-17 26 158
158 158 159 33 -32 34 -32 -159 -159z m197 38 c1 -38 -5 -46 -102 -143 -108
-107 -122 -115 -183 -92 l-28 11 149 149 c160 161 163 162 164 75z m-742 -182
c-28 -29 -54 -53 -58 -53 -3 0 -12 21 -19 46 l-13 45 64 65 64 65 7 -58 6 -58
-51 -52z m-2347 -120 c0 -21 -21 -49 -92 -120 -109 -109 -138 -120 -138 -51 0
40 5 48 77 120 69 70 81 78 115 78 35 0 38 -2 38 -27z m2210 5 c0 -32 -186
-218 -217 -218 -20 0 -23 5 -23 42 0 40 5 48 77 120 73 73 80 78 120 78 38 0
43 -3 43 -22z m-1071 -38 l44 -12 -109 -109 -109 -109 -65 0 -65 0 124 124
c69 69 127 123 130 121 3 -1 26 -8 50 -15z m151 -105 l-125 -125 -65 0 -65 0
110 110 c79 79 117 110 135 111 14 0 45 6 70 13 25 8 49 14 55 15 5 0 -46 -55
-115 -124z m1277 -123 l-112 -112 -3 62 -3 61 72 73 71 72 43 -22 43 -21 -111
-113z m213 -187 l-325 -325 -3 62 -3 62 233 233 c222 222 235 233 283 243 27
6 68 19 90 30 22 10 42 19 45 19 3 1 -141 -145 -320 -324z m23 267 l37 -7
-195 -195 -195 -195 0 65 0 65 137 137 c142 142 143 143 216 130z m-2453 -497
l-105 -106 -3 62 c-3 61 -2 63 40 106 41 42 44 43 107 43 l66 0 -105 -105z
m100 -100 l-205 -205 -3 62 -3 62 143 143 143 143 65 0 65 0 -205 -205z m100
-100 l-305 -305 -3 62 -3 62 243 243 243 243 65 0 65 0 -305 -305z m100 -100
l-405 -405 -3 62 -3 62 343 343 343 343 65 0 65 0 -405 -405z m105 -95 c-275
-275 -503 -500 -507 -500 -5 0 -8 26 -8 57 l0 58 442 442 443 443 65 0 65 0
-500 -500z m200 0 l-500 -500 -65 0 -65 0 500 500 500 500 65 0 65 0 -500
-500z m200 0 l-500 -500 -65 0 -65 0 500 500 500 500 65 0 65 0 -500 -500z
m585 443 l0 -58 -442 -442 -443 -443 -65 0 -65 0 500 500 c275 275 503 500
507 500 5 0 8 -26 8 -57z m-1850 -108 l-115 -115 -3 61 -3 62 53 54 52 53 65
0 66 0 -115 -115z m2200 0 l-115 -115 -3 61 -3 62 53 54 52 53 65 0 66 0 -115
-115z m-692 -492 l-343 -343 -65 0 -65 0 405 405 405 405 3 -62 3 -62 -343
-343z m100 -100 l-243 -243 -65 0 -65 0 305 305 305 305 3 -62 3 -62 -243
-243z m100 -100 l-143 -143 -65 0 -65 0 205 205 205 205 3 -62 3 -62 -143
-143z m565 -35 c-47 -48 -48 -48 -112 -48 l-66 0 110 110 110 110 3 -61 c3
-62 3 -62 -45 -111z m-2205 -5 c-41 -42 -44 -43 -107 -43 l-66 0 105 105 105
106 3 -62 c3 -61 2 -63 -40 -106z m1740 -60 c-41 -42 -44 -43 -107 -43 l-66 0
105 105 105 106 3 -62 c3 -61 2 -63 -40 -106z"/>
<path d="M4096 1050 c-559 -558 -1022 -1023 -1027 -1033 -8 -14 -5 -17 18 -17
23 0 181 153 1011 983 541 540 992 994 1003 1010 11 15 19 37 17 50 -4 18
-175 -149 -1022 -993z"/>
<path d="M4196 950 c-504 -503 -922 -923 -927 -932 -8 -15 -5 -18 18 -18 23 0
167 139 911 882 486 486 892 895 903 911 11 15 19 37 17 50 -4 18 -158 -132
-922 -893z"/>
<path d="M4296 850 c-449 -448 -822 -823 -827 -832 -8 -15 -5 -18 18 -18 23 0
152 124 811 783 431 430 792 794 803 810 11 15 19 37 17 50 -4 18 -141 -114
-822 -793z"/>
<path d="M4396 750 c-394 -393 -722 -723 -727 -732 -8 -15 -5 -18 18 -18 23 0
137 110 711 683 376 375 692 694 703 710 11 15 19 37 17 50 -4 18 -124 -97
-722 -693z"/>
<path d="M4496 650 c-339 -338 -622 -623 -627 -632 -8 -15 -5 -18 18 -18 23 0
123 95 611 583 321 320 592 594 603 610 11 15 19 37 17 50 -4 18 -106 -80
-622 -593z"/>
<path d="M4596 550 c-284 -283 -522 -523 -527 -533 -8 -14 -5 -17 18 -17 23 0
108 81 511 483 266 265 492 494 503 510 11 15 19 37 17 50 -4 18 -89 -62 -522
-493z"/>
<path d="M4696 450 c-229 -228 -422 -423 -427 -432 -8 -15 -5 -18 18 -18 22 0
93 66 411 383 211 210 392 394 403 410 11 15 19 37 17 50 -4 18 -72 -45 -422
-393z"/>
<path d="M4796 350 c-174 -173 -322 -323 -327 -332 -8 -15 -5 -18 17 -18 23 0
80 52 312 282 156 156 293 295 303 311 11 15 19 37 17 50 -4 18 -54 -28 -322
-293z"/>
<path d="M4896 250 c-119 -118 -222 -223 -227 -232 -8 -15 -5 -18 17 -18 21 0
65 37 211 183 205 202 226 227 221 260 -3 19 -37 -11 -222 -193z"/>
<path d="M4996 150 c-136 -133 -149 -150 -111 -150 18 0 49 23 111 82 102 98
127 130 122 161 -3 19 -19 7 -122 -93z"/>
</g>
</svg>
