<?xml version="1.0" standalone="no"?>
<!DOCTYPE svg PUBLIC "-//W3C//DTD SVG 20010904//EN"
 "http://www.w3.org/TR/2001/REC-SVG-20010904/DTD/svg10.dtd">
<svg version="1.0" xmlns="http://www.w3.org/2000/svg"
 width="512.000000pt" height="512.000000pt" viewBox="0 0 512.000000 512.000000"
 preserveAspectRatio="xMidYMid meet">
<metadata>
Created by potrace 1.16, written by Peter Selinger 2001-2019
</metadata>
<g transform="translate(0.000000,512.000000) scale(0.100000,-0.100000)"
fill="#000000" stroke="none">
<path d="M660 4589 c-11 -7 -7 -8 15 -4 19 4 12 -2 -20 -15 -107 -44 -192
-129 -237 -240 l-23 -55 -3 -1329 c-1 -867 1 -1348 8 -1384 31 -170 161 -301
329 -332 34 -6 406 -10 992 -10 l939 0 28 -63 c16 -34 41 -81 55 -104 29 -46
33 -58 15 -47 -7 4 -8 3 -4 -5 4 -6 11 -9 15 -6 5 2 21 -14 36 -37 36 -55 168
-187 223 -223 23 -15 39 -31 37 -36 -3 -4 0 -11 6 -15 8 -4 9 -3 5 4 -11 18 3
14 35 -9 47 -33 170 -87 263 -113 287 -84 628 -30 875 138 57 39 66 43 54 24
-4 -7 11 1 32 19 61 48 221 218 188 199 -20 -11 -16 -2 23 55 90 132 154 312
174 484 25 230 -42 500 -174 694 -39 57 -43 66 -23 54 23 -14 -51 72 -115 133
-65 62 -120 107 -173 139 -43 27 -19 5 45 -40 65 -47 184 -158 213 -200 11
-16 -10 2 -47 42 -163 176 -410 308 -631 337 l-50 7 3 777 c1 489 -1 796 -8
831 -23 126 -104 237 -213 291 -33 16 -67 30 -76 31 -12 0 -11 3 4 9 11 5
-611 9 -1390 9 -925 0 -1415 -3 -1425 -10z m2777 -220 c31 -11 78 -53 96 -84
9 -15 13 -239 17 -827 l5 -807 -50 -7 c-115 -15 -318 -89 -394 -143 -32 -23
-46 -27 -35 -9 4 7 3 8 -5 4 -6 -4 -9 -11 -6 -16 3 -5 -4 -14 -15 -20 -46 -25
-162 -134 -224 -212 -77 -95 -165 -266 -195 -378 -30 -110 -46 -270 -34 -357
l9 -73 -928 0 c-757 0 -935 2 -961 14 -43 17 -95 78 -102 118 -3 18 -4 632 -3
1364 l3 1331 28 36 c15 21 45 46 65 57 36 19 68 19 1369 20 918 0 1340 -3
1360 -11z m369 -1940 c269 -47 499 -220 624 -468 100 -199 108 -478 22 -692
-17 -41 -35 -73 -42 -71 -6 1 -9 -2 -5 -7 17 -29 -115 -196 -216 -273 -82 -63
-212 -129 -304 -154 -36 -10 -115 -18 -195 -21 -114 -4 -149 -2 -223 16 -165
39 -310 122 -423 243 -72 77 -126 157 -119 176 2 7 0 10 -5 7 -5 -3 -21 20
-36 52 -71 161 -91 354 -56 527 25 120 97 272 172 364 126 154 323 269 518
302 70 12 220 11 288 -1z"/>
<path d="M1455 3757 c-19 -19 -35 -41 -35 -48 0 -8 9 0 20 18 10 17 28 37 39
42 34 19 38 12 5 -8 -17 -11 -36 -33 -43 -51 -7 -22 -11 -270 -11 -828 l-1
-795 28 -29 c14 -15 30 -28 34 -28 4 0 -8 15 -27 34 -19 19 -34 40 -34 47 0 8
9 0 20 -18 31 -51 83 -68 133 -42 12 7 307 180 654 386 348 206 637 372 642
369 5 -3 23 10 40 29 24 27 31 44 30 73 l-2 37 -6 -43 c-5 -29 -17 -52 -36
-70 l-29 -27 24 28 c24 27 47 133 26 120 -5 -4 -7 0 -3 9 5 15 -20 46 -53 63
-8 4 1 -7 20 -24 31 -29 32 -30 5 -12 -16 11 -316 189 -665 396 -349 207 -635
381 -635 387 0 6 -7 13 -15 15 -13 4 -13 3 0 -7 12 -9 7 -10 -20 -5 -19 4 -43
9 -53 11 -11 4 -30 -7 -52 -29z m700 -572 c248 -146 453 -269 457 -273 5 -5
-560 -345 -921 -554 l-46 -27 0 579 0 579 30 -19 c17 -10 233 -138 480 -285z"/>
<path d="M3630 2160 c13 -9 12 -10 -5 -8 -11 1 -20 0 -20 -4 0 -11 -68 -78
-79 -78 -5 0 6 17 25 37 18 21 -38 -32 -126 -116 -218 -211 -252 -245 -236
-236 9 5 12 3 9 -6 -3 -8 -11 -14 -19 -14 -10 0 -14 -13 -14 -47 0 -28 3 -42
8 -35 5 7 7 2 5 -13 -2 -17 2 -25 12 -25 8 0 15 -5 15 -12 0 -7 6 -18 14 -25
11 -11 13 -11 6 1 -6 10 -2 11 16 5 30 -10 48 -10 78 0 18 6 22 5 15 -5 -16
-26 71 50 141 123 39 40 52 57 30 38 l-40 -35 40 43 40 43 5 -348 c5 -375 6
-380 60 -408 37 -19 63 -19 100 0 54 28 55 33 60 408 l5 348 30 -33 30 -33
-30 25 -30 25 25 -29 c43 -49 199 -186 212 -186 7 0 4 6 -7 12 -32 18 -176
151 -170 156 3 3 41 -29 84 -71 43 -42 87 -78 97 -78 63 -5 98 1 113 16 10 11
11 15 2 10 -9 -5 -12 -3 -9 6 3 8 11 14 18 14 7 0 15 7 17 15 4 13 3 13 -7 0
-8 -12 -9 -9 -4 13 10 45 -4 76 -64 141 -53 57 -53 58 -8 16 27 -25 57 -58 67
-75 10 -17 19 -23 19 -15 1 17 -421 431 -432 424 -3 -2 -17 0 -30 4 -12 5 -36
12 -53 16 -23 5 -26 4 -15 -4z"/>
</g>
</svg>
